<svg width="99" height="33" viewBox="0 0 99 33" fill="none" xmlns="http://www.w3.org/2000/svg">
<path d="M48.8259 14.7621C48.3137 13.7983 47.5351 12.9975 46.5805 12.4526C45.6258 11.9077 44.5343 11.641 43.4323 11.6835C42.3249 11.7347 41.2545 12.0932 40.3442 12.7176C39.4338 13.3421 38.7205 14.2074 38.2859 15.214C36.5532 19.2381 39.528 23.6428 43.6564 23.6428C44.727 23.6289 45.7736 23.3278 46.6841 22.7719C47.5947 22.2159 48.3348 21.4261 48.8254 20.4868H51.6512C51.0695 22.1201 49.9874 23.5343 48.555 24.5337C47.1225 25.533 45.4106 26.068 43.6564 26.0645C42.0985 26.0706 40.5688 25.6548 39.2338 24.8623C37.8988 24.0698 36.8097 22.931 36.0851 21.57C35.3605 20.2089 35.0282 18.6777 35.1244 17.1431C35.2206 15.6086 35.7415 14.1295 36.6305 12.8669C37.5196 11.6043 38.7426 10.6067 40.1663 9.98256C41.5901 9.35847 43.1602 9.13184 44.7054 9.32741C46.2507 9.52298 47.7119 10.1332 48.93 11.0917C50.1482 12.0501 51.0765 13.3201 51.614 14.7632L48.8259 14.7621Z" fill="white"/>
<path d="M48.7178 14.7621C48.2055 13.7983 47.427 12.9975 46.4723 12.4526C45.5177 11.9077 44.4261 11.641 43.3241 11.6835C42.2167 11.7347 41.1463 12.0932 40.236 12.7176C39.3257 13.3421 38.6123 14.2074 38.1778 15.214C36.445 19.2381 39.4199 23.6428 43.5483 23.6428C44.6189 23.6289 45.6655 23.3278 46.576 22.7719C47.4865 22.2159 48.2267 21.4261 48.7172 20.4868H51.5431C50.9613 22.1201 49.8793 23.5343 48.4468 24.5337C47.0144 25.533 45.3025 26.068 43.5483 26.0645C41.9904 26.0706 40.4606 25.6548 39.1256 24.8623C37.7906 24.0698 36.7015 22.931 35.9769 21.57C35.2524 20.2089 34.9201 18.6777 35.0162 17.1431C35.1124 15.6086 35.6334 14.1295 36.5224 12.8669C37.4114 11.6043 38.6344 10.6067 40.0582 9.98256C41.482 9.35847 43.052 9.13184 44.5973 9.32741C46.1425 9.52298 47.6037 10.1332 48.8219 11.0917C50.04 12.0501 50.9684 13.3201 51.5058 14.7632L48.7178 14.7621Z" fill="white"/>
<path d="M87.0892 33.0006C86.7797 33.0006 86.4754 32.9225 86.2051 32.7739C85.9348 32.6252 85.7075 32.4108 85.5448 32.151C85.3821 31.8912 85.2894 31.5947 85.2755 31.2896C85.2616 30.9845 85.327 30.681 85.4654 30.4078L88.7999 23.8267L81.5482 9.51654H82.6864C83.227 9.51651 83.757 9.66525 84.2167 9.94607C84.6763 10.2269 85.0476 10.6286 85.2887 11.1062L90.2498 20.9292L94.7339 12.1069C95.1297 11.3281 95.7372 10.6732 96.4885 10.2156C97.2398 9.75789 98.1053 9.51543 98.9882 9.51538L91.7376 23.8634L87.0892 33.0006Z" fill="white"/>
<path d="M86.981 33.0006C86.6716 33.0006 86.3673 32.9225 86.097 32.7739C85.8267 32.6252 85.5993 32.4108 85.4366 32.151C85.2739 31.8912 85.1812 31.5947 85.1673 31.2896C85.1534 30.9845 85.2188 30.681 85.3572 30.4078L88.6918 23.8267L81.44 9.51654H82.5782C83.1189 9.51651 83.6488 9.66525 84.1085 9.94607C84.5682 10.2269 84.9394 10.6286 85.1805 11.1062L90.1417 20.9292L94.6258 12.1069C95.0216 11.3281 95.6291 10.6732 96.3804 10.2156C97.1317 9.75789 97.9971 9.51543 98.88 9.51538L91.6294 23.8634L86.981 33.0006Z" fill="white"/>
<path d="M62.4013 14.0645C62.934 12.9491 63.7095 11.9634 64.6725 11.1777C65.6354 10.392 66.7621 9.82554 67.9723 9.51879C69.4602 9.12764 71.031 9.16844 72.496 9.63633C73.9611 10.1042 75.2582 10.9793 76.2318 12.1566V9.5143C76.8922 9.5143 77.5255 9.77317 77.9925 10.234C78.4594 10.6948 78.7217 11.3199 78.7217 11.9716V25.7346C78.0614 25.7346 77.4281 25.4757 76.9611 25.0149C76.4942 24.554 76.2318 23.9291 76.2318 23.2773V23.094C75.4933 24.0131 74.5554 24.7572 73.4872 25.2716C72.419 25.7861 71.2476 26.0577 70.059 26.0667C64.208 26.0639 59.6556 19.846 62.4013 14.0645ZM75.6368 19.8538C77.6213 14.9588 72.6257 10.3183 67.9327 12.0479C67.2181 12.3188 66.5658 12.7281 66.0142 13.2519C65.4626 13.7757 65.023 14.4033 64.7213 15.0975C62.7598 19.5697 66.4546 24.57 71.3125 23.4935C72.2762 23.2742 73.1722 22.8289 73.9245 22.1954C74.6769 21.5618 75.2634 20.7586 75.6345 19.8538H75.6368Z" fill="white"/>
<path d="M62.2931 14.0645C62.8259 12.9491 63.6014 11.9634 64.5643 11.1777C65.5272 10.392 66.654 9.82554 67.8641 9.51879C69.3521 9.12764 70.9228 9.16844 72.3879 9.63633C73.8529 10.1042 75.15 10.9793 76.1237 12.1566V9.5143C76.784 9.5143 77.4174 9.77317 77.8843 10.234C78.3513 10.6948 78.6136 11.3199 78.6136 11.9716V25.7346C77.9532 25.7346 77.3199 25.4757 76.853 25.0149C76.386 24.554 76.1237 23.9291 76.1237 23.2773V23.094C75.3851 24.0131 74.4473 24.7572 73.3791 25.2716C72.3109 25.7861 71.1394 26.0577 69.9509 26.0667C64.0999 26.0639 59.5475 19.846 62.2931 14.0645ZM75.5286 19.8538C77.5132 14.9588 72.5176 10.3183 67.8246 12.0479C67.11 12.3188 66.4576 12.7281 65.9061 13.2519C65.3545 13.7757 64.9148 14.4033 64.6131 15.0975C62.6517 19.5697 66.3465 24.57 71.2043 23.4935C72.1681 23.2742 73.064 22.8289 73.8164 22.1954C74.5687 21.5618 75.1553 20.7586 75.5263 19.8538H75.5286Z" fill="white"/>
<path d="M55.3708 0V23.2021C55.3708 23.8538 55.6332 24.4788 56.1001 24.9397C56.5671 25.4005 57.2004 25.6594 57.8608 25.6594V3.07412C57.8608 2.35893 57.6143 1.665 57.1618 1.10635C56.7093 0.547706 56.0777 0.157554 55.3708 0Z" fill="white"/>
<path d="M55.2627 0V23.2021C55.2627 23.8538 55.525 24.4788 55.992 24.9397C56.4589 25.4005 57.0923 25.6594 57.7526 25.6594V3.07412C57.7526 2.35893 57.5061 1.665 57.0536 1.10635C56.6011 0.547706 55.9696 0.157554 55.2627 0Z" fill="white"/>
<path fill-rule="evenodd" clip-rule="evenodd" d="M2.07724 14.7754C1.90786 14.9203 0.765104 15.9456 0.873509 18.4241C0.908021 19.6273 1.24353 20.8035 1.85014 21.8478C2.45676 22.8921 3.31565 23.7722 4.35034 24.4096L4.42882 24.4575C5.01755 24.8053 5.69618 24.9762 6.38178 24.9495C9.65648 24.8174 11.5451 22.3618 13.0481 20.5475C11.1778 18.7779 10.0539 16.3763 9.90153 13.8237C7.55729 13.573 4.47229 12.755 2.07724 14.7754Z" fill="url(#paint0_linear_335_3040)"/>
<path fill-rule="evenodd" clip-rule="evenodd" d="M0.308361 16.7691C0.329815 16.7006 0.350692 16.637 0.372147 16.5763C0.405459 16.4766 0.435949 16.3779 0.479424 16.2754C0.765564 15.4078 1.27369 14.6278 1.95467 14.0106C2.63565 13.3935 3.46645 12.9603 4.36673 12.7528C4.40682 12.7416 4.44804 12.7316 4.48869 12.721C4.70211 12.6653 4.92795 12.6157 5.16283 12.5734C5.24018 12.5594 5.31866 12.5466 5.39883 12.5332C5.61225 12.4998 5.83809 12.4736 6.06845 12.4513C6.17403 12.4413 6.27904 12.4307 6.38858 12.4229C6.61442 12.4067 6.85494 12.3995 7.09941 12.3945C7.22476 12.3945 7.34671 12.3872 7.47657 12.3878C7.73798 12.3878 8.01689 12.4 8.29863 12.4145C8.42567 12.4207 8.54254 12.4223 8.67579 12.4307C9.09529 12.4597 9.53285 12.4998 9.99696 12.5572C11.52 12.7609 13.053 12.8832 14.5895 12.9233C14.8034 12.9266 15.0214 12.9233 15.2421 12.9177C15.3884 12.9127 15.5414 12.9015 15.6938 12.8915C15.7667 12.8865 15.8401 12.8848 15.9118 12.8792C16.1257 12.8614 16.3409 12.8375 16.556 12.8085L16.5848 12.8051C19.5139 12.4045 22.4284 10.9469 22.4696 7.65767C22.4669 6.61405 22.141 5.59617 21.5355 4.74056C20.93 3.88495 20.0739 3.23251 19.082 2.8707V2.86791C17.1098 2.14477 14.9989 1.86508 12.9033 2.04928C10.8077 2.23348 8.78009 2.87691 6.96841 3.93264C5.15674 4.98837 3.60663 6.42982 2.43111 8.15185C1.25558 9.87389 0.484269 11.8331 0.173412 13.8867C-0.0560856 15.2715 -0.0578029 16.6837 0.168329 18.0691C0.142405 17.6311 0.18972 17.1919 0.308361 16.7691Z" fill="url(#paint1_linear_335_3040)"/>
<path fill-rule="evenodd" clip-rule="evenodd" d="M26.3547 15.8597C26.2926 15.7973 26.2265 15.7388 26.1593 15.6792C26.2271 15.7394 26.2942 15.799 26.3547 15.8597Z" fill="url(#paint2_linear_335_3040)"/>
<path fill-rule="evenodd" clip-rule="evenodd" d="M26.3733 15.8804C23.4018 12.9991 19.3039 15.1928 16.8812 17.649C15.8041 18.7625 14.7887 19.9327 13.8397 21.1544C10.2968 25.6293 7.16716 25.8829 5.24017 25.4115C4.06479 25.105 3.02674 24.42 2.29067 23.4651C2.28108 23.4529 2.27825 23.4473 2.26865 23.435L2.26245 23.4295C3.1788 25.0571 5.79857 27.1332 5.79857 27.1332C7.51113 28.3926 9.4869 29.2591 11.5818 29.6693C13.6767 30.0795 15.838 30.0231 17.9081 29.5044C19.9781 28.9856 21.9048 28.0176 23.5476 26.6707C25.1905 25.3238 26.508 23.6321 27.4043 21.7189H27.4003C27.8529 20.7585 27.997 19.6845 27.8134 18.6409C27.6299 17.5974 27.1274 16.6341 26.3733 15.8804Z" fill="url(#paint3_linear_335_3040)"/>
<path fill-rule="evenodd" clip-rule="evenodd" d="M25.7579 15.3348C25.767 15.3415 25.7766 15.3482 25.7852 15.3554C25.7754 15.3495 25.7662 15.3426 25.7579 15.3348Z" fill="url(#paint4_linear_335_3040)"/>
<path opacity="0.15" d="M1.66168 15.2452C1.77009 15.2274 1.87904 15.2095 1.98801 15.1945C4.79488 14.8982 7.63347 15.2106 10.3052 16.11C10.0815 15.3652 9.94468 14.5976 9.89755 13.8221C7.55388 13.5747 4.47058 12.7595 2.07666 14.7766C1.92068 14.9167 1.78146 15.0739 1.66168 15.2452Z" fill="#0C1220"/>
<path opacity="0.15" d="M6.7838 27.721C6.82276 27.7048 6.81937 27.692 6.80525 27.6803C6.72056 27.7316 6.68782 27.76 6.7838 27.721Z" fill="#0C1220"/>
<path opacity="0.15" d="M5.26578 26.6094L5.23676 26.601C5.27942 26.576 5.22539 26.6339 5.26578 26.6094Z" fill="#0C1220"/>
<path opacity="0.15" d="M22.4646 7.84045C22.4646 7.92571 22.4646 8.00761 22.4567 8.09899C22.4646 8.01095 22.4646 7.92682 22.4646 7.84045Z" fill="#BFE3EC"/>
<path opacity="0.15" d="M20.8312 11.1341C21.3427 10.7169 21.7542 10.1931 22.0365 9.60032C22.3187 9.00757 22.4645 8.36055 22.4634 7.70563C22.4718 6.65311 22.151 5.62368 21.5448 4.75772C20.9385 3.89176 20.0763 3.23145 19.0758 2.86687V2.86409C16.16 1.7943 12.968 1.70365 9.99464 2.60619C7.02129 3.50873 4.43267 5.35404 2.63002 7.85609C2.43203 8.13135 2.24552 8.40995 2.0705 8.6919C12.4253 1.82099 21.0124 7.38469 20.8312 11.1341Z" fill="#BFE3EC"/>
<path opacity="0.15" fill-rule="evenodd" clip-rule="evenodd" d="M22.4646 7.84937C22.4646 7.93016 22.4618 8.01035 22.4567 8.09505C22.4646 8.01314 22.4646 7.93295 22.4646 7.84937Z" fill="#252B5B"/>
<path opacity="0.15" fill-rule="evenodd" clip-rule="evenodd" d="M9.99867 12.5566C11.5217 12.7604 13.0548 12.8826 14.5912 12.9227C17.9952 12.9784 22.3731 11.718 22.4652 7.71333C22.4652 7.60189 22.4714 7.49543 22.4652 7.38678C17.8919 5.51846 9.58481 6.24454 2.42676 13.0185C3.19713 12.8253 3.98398 12.7029 4.77722 12.653C6.49883 12.3218 8.26572 12.2892 9.99867 12.5566Z" fill="#252B5B"/>
<path opacity="0.15" fill-rule="evenodd" clip-rule="evenodd" d="M4.75685 12.6581C6.45491 12.3271 8.19829 12.2894 9.90941 12.5466C10.0577 10.1038 11.0871 7.79404 12.8112 6.03522C14.5354 4.27641 16.8405 3.18472 19.3095 2.95766C19.2344 2.92702 19.1582 2.89582 19.0803 2.8674V2.86461C17.108 2.14057 14.9967 1.86033 12.9007 2.04438C10.8046 2.22843 8.77665 2.87211 6.96485 3.92842C5.15304 4.98473 3.60312 6.42699 2.42825 8.14995C1.25338 9.8729 0.483198 11.833 0.17395 13.8873C0.397534 13.7725 0.629395 13.6622 0.86954 13.5563C2.10179 13.0339 3.41768 12.7298 4.75685 12.6581Z" fill="#252B5B"/>
<path opacity="0.15" fill-rule="evenodd" clip-rule="evenodd" d="M26.2356 15.7489C26.1723 15.6887 26.1102 15.6269 26.043 15.5695C26.1108 15.6285 26.1746 15.6887 26.2356 15.7489Z" fill="#BE1622"/>
<path opacity="0.15" fill-rule="evenodd" clip-rule="evenodd" d="M26.3293 15.8425C23.3617 13.0241 19.2926 15.2056 16.8817 17.6501C15.8046 18.7635 14.7893 19.9337 13.8402 21.1555C11.4689 24.1476 9.29007 25.2476 7.52625 25.5101C19.1989 26.771 24.6338 20.635 26.567 16.0776C26.4913 15.9951 26.4078 15.9205 26.3293 15.8425Z" fill="#BE1622"/>
<path opacity="0.15" d="M26.2418 15.7551C26.1752 15.6915 26.1102 15.6274 26.0408 15.5673C26.1113 15.6297 26.1752 15.6921 26.2418 15.7551Z" fill="#F9B233"/>
<path opacity="0.15" d="M26.3338 15.8464C25.8598 15.3738 25.2856 15.0106 24.6526 14.7829C24.0196 14.5551 23.3433 14.4685 22.6723 14.5292C25.5202 17.104 23.3696 27.1738 10.9325 29.528C11.2649 29.609 11.6019 29.6787 11.9437 29.737C15.0558 30.2663 18.2579 29.7676 21.0535 28.3183C23.8492 26.8689 26.0823 24.5498 27.4065 21.7205H27.4026C27.8584 20.7518 28.0003 19.6679 27.8091 18.6167C27.6178 17.5654 27.1026 16.5981 26.3338 15.8464Z" fill="#F9B233"/>
<path opacity="0.15" fill-rule="evenodd" clip-rule="evenodd" d="M27.5025 21.4937C25.5585 23.0723 23.1069 23.9135 20.5899 23.8655C18.0728 23.8175 15.656 22.8834 13.7753 21.2318C10.26 25.6287 7.15528 25.8806 5.24014 25.4109C4.06472 25.1042 3.02668 24.419 2.29065 23.464C3.15104 24.7659 4.22936 25.9141 5.47954 26.8596C7.2461 28.2501 9.32051 29.209 11.5338 29.6584C18.0267 31.0698 24.7546 27.3989 27.4065 21.7182H27.4026C27.4376 21.6469 27.472 21.5717 27.5025 21.4937Z" fill="#F9B233"/>
<path d="M21.1524 13.9202C17.806 14.5855 15.5419 17.5419 13.1068 20.4728C11.5931 22.2943 9.69774 24.8096 6.38238 24.9456C5.69678 24.9724 5.01812 24.8014 4.4294 24.4535L4.35092 24.4051C3.3164 23.7675 2.45765 22.8874 1.85105 21.8431C1.24446 20.7989 0.908852 19.6228 0.874091 18.4196C0.765687 15.9428 1.90675 14.9159 2.07782 14.7715C4.49489 12.7338 7.6166 13.5869 9.96874 13.8243C13.7347 14.2066 17.3956 14.7203 20.2028 12.8932C21.7837 11.8635 22.5176 9.22569 22.4747 7.58472C22.4747 11.6902 18.0319 12.9773 14.5917 12.9199C13.0553 12.8799 11.5222 12.7577 9.99922 12.5539C3.05459 11.6896 1.2439 14.2177 0.481118 16.2715C0.437644 16.3735 0.407171 16.4727 0.373859 16.5724C0.352404 16.6342 0.33151 16.6984 0.310055 16.7652C0.191081 17.1884 0.143569 17.6279 0.169456 18.0663C0.454966 19.892 1.11387 21.6412 2.10606 23.2077C2.16327 23.2958 2.22527 23.3808 2.29181 23.4623C3.02745 24.4176 4.06566 25.1027 5.2413 25.4086C7.16829 25.8805 10.2979 25.627 13.8408 21.1515C14.7899 19.9298 15.8052 18.7596 16.8823 17.6461C19.3192 15.1755 23.4521 12.9656 26.427 15.9233C25.2673 14.7153 23.0371 13.5452 21.1524 13.9202Z" fill="url(#paint5_linear_335_3040)"/>
<path opacity="0.15" d="M13.0436 20.5493C12.4608 19.995 11.9461 19.375 11.5101 18.7021C10.5682 20.9524 9.22247 23.0163 7.53754 24.7946C10.1155 24.2146 11.7286 22.1384 13.0436 20.5493Z" fill="#0C1220"/>
<defs>
<linearGradient id="paint0_linear_335_3040" x1="1.37791" y1="20.8679" x2="11.6365" y2="16.7391" gradientUnits="userSpaceOnUse">
<stop offset="0.16" stop-color="#244273"/>
<stop offset="0.65" stop-color="#002135"/>
</linearGradient>
<linearGradient id="paint1_linear_335_3040" x1="-19.2115" y1="9.22793" x2="22.2645" y2="11.6736" gradientUnits="userSpaceOnUse">
<stop stop-color="#3356A3"/>
<stop offset="1" stop-color="#66B97A"/>
</linearGradient>
<linearGradient id="paint2_linear_335_3040" x1="25.9841" y1="15.761" x2="26.3571" y2="15.7745" gradientUnits="userSpaceOnUse">
<stop stop-color="#DE3424"/>
<stop offset="0.69" stop-color="#EC6608"/>
</linearGradient>
<linearGradient id="paint3_linear_335_3040" x1="-19.9575" y1="21.0537" x2="27.5503" y2="25.0378" gradientUnits="userSpaceOnUse">
<stop stop-color="#DE3424"/>
<stop offset="0.69" stop-color="#EC6608"/>
</linearGradient>
<linearGradient id="paint4_linear_335_3040" x1="25.733" y1="15.3459" x2="25.7856" y2="15.3484" gradientUnits="userSpaceOnUse">
<stop stop-color="#DE3424"/>
<stop offset="0.69" stop-color="#EC6608"/>
</linearGradient>
<linearGradient id="paint5_linear_335_3040" x1="11.7452" y1="9.83383" x2="13.1914" y2="24.1559" gradientUnits="userSpaceOnUse">
<stop offset="0.25" stop-color="#87CEDC"/>
<stop offset="0.77" stop-color="#F39200"/>
</linearGradient>
</defs>
</svg>
